# Wavefront .OBJ file for tesselated shape: hopper^assembly_conveyor-1 path: C:\Users\tasora\AppData\Local\Temp\swx4916\VC~~\assembly_conveyor\hopper^assembly_conveyor.sldprt

g body_1
g body_2
v -0.360000 0.600000 -0.350000
v -0.360000 0.600000 0.350000
v -0.350000 0.600000 0.350000
v -0.350000 0.600000 -0.350000
v -0.350000 0.500000 0.350000
v -0.350000 0.500000 -0.350000
v -0.350000 0.600000 -0.350000
v -0.350000 0.600000 0.350000
v -0.360000 0.600000 -0.350000
v -0.350000 0.600000 -0.350000
v -0.350000 0.500000 -0.350000
v -0.360000 0.497947 -0.350000
v -0.349120 0.497947 -0.350000
v -0.360000 0.600000 0.350000
v -0.360000 0.497947 0.350000
v -0.350000 0.500000 0.350000
v -0.349120 0.497947 0.350000
v -0.350000 0.600000 0.350000
v -0.349120 0.497947 0.350000
v -0.200000 0.150000 0.200880
v -0.200000 0.150000 -0.200880
v -0.349120 0.497947 -0.350000
v -0.350000 0.500000 -0.350000
v -0.350000 0.500000 0.350000
v -0.360000 0.497947 0.350000
v -0.360000 0.600000 0.350000
v -0.360000 0.600000 -0.350000
v -0.360000 0.497947 -0.350000
v -0.210000 0.147947 -0.200000
v -0.360000 0.497947 -0.350000
v -0.349120 0.497947 -0.350000
v -0.200000 0.150000 -0.200880
v -0.200000 0.147947 -0.200000
v -0.210000 0.147947 0.200000
v -0.200000 0.150000 0.200880
v -0.349120 0.497947 0.350000
v -0.200000 0.147947 0.200000
v -0.360000 0.497947 0.350000
v -0.200000 0.000000 0.200000
v -0.200000 0.000000 -0.200000
v -0.200000 0.147947 -0.200000
v -0.200000 0.147947 0.200000
v -0.200000 0.150000 -0.200880
v -0.200000 0.150000 0.200880
v -0.200000 0.000000 -0.200000
v -0.200000 0.000000 0.200000
v -0.210000 0.000000 0.200000
v -0.210000 0.000000 -0.200000
v -0.210000 0.000000 0.200000
v -0.210000 0.147947 0.200000
v -0.210000 0.147947 -0.200000
v -0.210000 0.000000 -0.200000
v -0.360000 0.497947 -0.350000
v -0.210000 0.147947 -0.200000
v -0.210000 0.147947 0.200000
v -0.360000 0.497947 0.350000
v -0.210000 0.000000 -0.200000
v -0.210000 0.147947 -0.200000
v -0.200000 0.147947 -0.200000
v -0.200000 0.000000 -0.200000
v -0.200000 0.000000 0.200000
v -0.200000 0.147947 0.200000
v -0.210000 0.147947 0.200000
v -0.210000 0.000000 0.200000
vn 0.000 1.000 0.000
vn 0.000 1.000 0.000
vn 0.000 1.000 0.000
vn 0.000 1.000 0.000
vn 1.000 0.000 0.000
vn 1.000 0.000 0.000
vn 1.000 0.000 0.000
vn 1.000 0.000 0.000
vn 0.000 0.000 -1.000
vn 0.000 0.000 -1.000
vn 0.000 0.000 -1.000
vn 0.000 0.000 -1.000
vn 0.000 0.000 -1.000
vn 0.000 0.000 1.000
vn 0.000 0.000 1.000
vn 0.000 0.000 1.000
vn 0.000 0.000 1.000
vn 0.000 0.000 1.000
vn 0.919 0.394 0.000
vn 0.919 0.394 0.000
vn 0.919 0.394 0.000
vn 0.919 0.394 0.000
vn 0.919 0.394 0.000
vn 0.919 0.394 0.000
vn -1.000 0.000 0.000
vn -1.000 0.000 0.000
vn -1.000 0.000 0.000
vn -1.000 0.000 0.000
vn 0.000 -0.394 -0.919
vn 0.000 -0.394 -0.919
vn 0.000 -0.394 -0.919
vn 0.000 -0.394 -0.919
vn 0.000 -0.394 -0.919
vn 0.000 -0.394 0.919
vn 0.000 -0.394 0.919
vn 0.000 -0.394 0.919
vn 0.000 -0.394 0.919
vn 0.000 -0.394 0.919
vn 1.000 0.000 0.000
vn 1.000 0.000 0.000
vn 1.000 0.000 0.000
vn 1.000 0.000 0.000
vn 1.000 0.000 0.000
vn 1.000 0.000 0.000
vn 0.000 -1.000 0.000
vn 0.000 -1.000 0.000
vn 0.000 -1.000 0.000
vn 0.000 -1.000 0.000
vn -1.000 0.000 0.000
vn -1.000 0.000 0.000
vn -1.000 0.000 0.000
vn -1.000 0.000 0.000
vn -0.919 -0.394 0.000
vn -0.919 -0.394 0.000
vn -0.919 -0.394 0.000
vn -0.919 -0.394 0.000
vn 0.000 0.000 -1.000
vn 0.000 0.000 -1.000
vn 0.000 0.000 -1.000
vn 0.000 0.000 -1.000
vn 0.000 0.000 1.000
vn 0.000 0.000 1.000
vn 0.000 0.000 1.000
vn 0.000 0.000 1.000
vt 0.2500 0.0000 0
vt 0.9500 0.0000 0
vt 0.9500 0.0100 0
vt 0.2500 0.0100 0
vt -0.1000 0.9500 0
vt -0.1000 0.2500 0
vt 0.0000 0.2500 0
vt 0.0000 0.9500 0
vt 0.0000 0.1021 0
vt 0.0100 0.1021 0
vt 0.0100 0.0021 0
vt 0.0000 0.0000 0
vt 0.0109 0.0000 0
vt 0.0000 0.1021 0
vt 0.0000 0.0000 0
vt -0.0100 0.0021 0
vt -0.0109 0.0000 0
vt -0.0100 0.1021 0
vt -0.0022 0.9500 0
vt -0.3808 0.8009 0
vt -0.3808 0.3991 0
vt -0.0022 0.2500 0
vt 0.0000 0.2500 0
vt 0.0000 0.9500 0
vt 0.9500 -0.1021 0
vt 0.9500 0.0000 0
vt 0.2500 0.0000 0
vt 0.2500 -0.1021 0
vt 0.0000 0.1500 0
vt -0.3808 0.0000 0
vt -0.3808 0.0109 0
vt -0.0022 0.1600 0
vt 0.0000 0.1600 0
vt 0.0000 0.1500 0
vt 0.0022 0.1600 0
vt 0.3808 0.0109 0
vt 0.0000 0.1600 0
vt 0.3808 0.0000 0
vt -0.8000 -0.1500 0
vt -0.4000 -0.1500 0
vt -0.4000 -0.0021 0
vt -0.8000 -0.0021 0
vt -0.3991 0.0000 0
vt -0.8009 0.0000 0
vt -0.4000 0.0100 0
vt -0.8000 0.0100 0
vt -0.8000 0.0000 0
vt -0.4000 0.0000 0
vt 0.8000 -0.1479 0
vt 0.8000 0.0000 0
vt 0.4000 0.0000 0
vt 0.4000 -0.1479 0
vt 0.0000 0.2500 0
vt 0.3808 0.4000 0
vt 0.3808 0.8000 0
vt 0.0000 0.9500 0
vt 0.1500 0.0000 0
vt 0.1500 0.1479 0
vt 0.1600 0.1479 0
vt 0.1600 0.0000 0
vt -0.1600 0.0000 0
vt -0.1600 0.1479 0
vt -0.1500 0.1479 0
vt -0.1500 0.0000 0
f 1/1/1 3/3/3 4/4/4
f 3/3/3 1/1/1 2/2/2
f 7/7/7 5/5/5 6/6/6
f 5/5/5 7/7/7 8/8/8
f 19/19/19 23/23/23 24/24/24
f 19/19/19 21/21/21 22/22/22
f 19/19/19 22/22/22 23/23/23
f 21/21/21 19/19/19 20/20/20
f 39/39/39 41/41/41 42/42/42
f 41/41/41 39/39/39 40/40/40
f 42/42/42 41/41/41 43/43/43
f 42/42/42 43/43/43 44/44/44
f 45/45/45 47/47/47 48/48/48
f 47/47/47 45/45/45 46/46/46
f 49/49/49 51/51/51 52/52/52
f 51/51/51 49/49/49 50/50/50
f 53/53/53 55/55/55 56/56/56
f 55/55/55 53/53/53 54/54/54
f 27/27/27 25/25/25 26/26/26
f 25/25/25 27/27/27 28/28/28
f 29/29/29 31/31/31 32/32/32
f 31/31/31 29/29/29 30/30/30
f 29/29/29 32/32/32 33/33/33
f 11/11/11 9/9/9 10/10/10
f 9/9/9 11/11/11 12/12/12
f 12/12/12 11/11/11 13/13/13
f 57/57/57 59/59/59 60/60/60
f 59/59/59 57/57/57 58/58/58
f 16/16/16 15/15/15 17/17/17
f 14/14/14 16/16/16 18/18/18
f 16/16/16 14/14/14 15/15/15
f 35/35/35 34/34/34 37/37/37
f 34/34/34 36/36/36 38/38/38
f 36/36/36 34/34/34 35/35/35
f 61/61/61 63/63/63 64/64/64
f 63/63/63 61/61/61 62/62/62
v 0.360000 0.497947 0.350000
v 0.360000 0.147947 0.200000
v 0.210000 0.147947 0.200000
v 0.210000 0.147947 -0.200000
v 0.205710 0.137939 -0.197326
v 0.201756 0.128712 -0.199985
v 0.205988 0.138586 -0.196936
v 0.360000 0.497947 -0.350000
v 0.210000 0.147947 0.180000
v 0.210000 0.147947 -0.180000
v 0.360000 0.497947 0.350000
v 0.209994 0.147934 0.180722
v 0.208848 0.145260 -0.190014
v 0.209000 0.145614 -0.189375
v 0.208843 0.145248 0.190034
v 0.210000 0.147947 0.200000
v 0.201429 0.127947 -0.200000
v 0.201429 0.127947 0.200000
v 0.205707 0.137930 0.197330
v 0.210000 0.147947 -0.200000
v 0.360000 0.147947 -0.200000
v 0.360000 0.497947 -0.350000
v 0.200000 0.147947 -0.180000
v 0.210000 0.147947 -0.180000
v 0.210000 0.147947 0.180000
v 0.200000 0.147947 0.180000
v 0.200000 0.147947 0.180000
v 0.209994 0.147934 0.180722
v 0.208843 0.145248 0.190034
v 0.210000 0.147947 0.180000
v 0.200000 0.145268 0.190000
v 0.205707 0.137930 0.197330
v 0.200000 0.137947 0.197321
v 0.201429 0.127947 0.200000
v 0.200000 0.127947 0.200000
v 0.200000 0.137947 -0.197321
v 0.200000 0.127947 -0.200000
v 0.201756 0.128712 -0.199985
v 0.201429 0.127947 -0.200000
v 0.200000 0.145268 -0.190000
v 0.205988 0.138586 -0.196936
v 0.205710 0.137939 -0.197326
v 0.200000 0.147947 -0.180000
v 0.209000 0.145614 -0.189375
v 0.208848 0.145260 -0.190014
v 0.210000 0.147947 -0.180000
v 0.200000 0.150000 0.200880
v 0.200000 0.150000 -0.200880
v 0.200000 0.147947 -0.180000
v 0.200000 0.145268 0.190000
v 0.200000 0.137947 0.197321
v 0.200000 0.147947 0.200000
v 0.200000 0.147947 0.180000
v 0.200000 0.145268 -0.190000
v 0.200000 0.147947 -0.200000
v 0.200000 0.127947 -0.200000
v 0.200000 0.137947 -0.197321
v 0.200000 0.127947 0.200000
v 0.360000 0.000000 0.200000
v 0.201429 0.127947 0.200000
v 0.210000 0.147947 0.200000
v -0.360000 0.000000 0.200000
v 0.200000 0.127947 0.200000
v -0.360000 0.147947 0.200000
v 0.200000 0.147947 0.200000
v 0.360000 0.147947 0.200000
v -0.360000 0.497947 0.350000
v 0.349120 0.497947 0.350000
v 0.200000 0.150000 0.200880
v -0.360000 0.147947 0.200000
v 0.200000 0.147947 0.200000
v -0.360000 0.000000 0.200000
v 0.360000 0.000000 0.200000
v 0.360000 0.000000 0.210000
v -0.360000 0.000000 0.210000
v -0.360000 0.145895 0.210000
v -0.360000 0.000000 0.210000
v 0.360000 0.000000 0.210000
v 0.360000 0.145895 0.210000
v -0.360000 0.145895 0.210000
v 0.360000 0.145895 0.210000
v 0.360000 0.495895 0.360000
v -0.360000 0.495895 0.360000
v -0.360000 0.497947 0.350000
v -0.360000 0.147947 0.200000
v -0.360000 0.145895 0.210000
v -0.360000 0.600000 0.360000
v -0.360000 0.600000 0.350000
v -0.360000 0.495895 0.360000
v -0.360000 0.000000 0.200000
v -0.360000 0.000000 0.210000
v -0.360000 0.495895 0.360000
v 0.360000 0.495895 0.360000
v 0.360000 0.600000 0.360000
v -0.360000 0.600000 0.360000
v -0.360000 0.600000 0.350000
v 0.350000 0.500000 0.350000
v 0.349120 0.497947 0.350000
v 0.350000 0.600000 0.350000
v -0.360000 0.497947 0.350000
v 0.349120 0.497947 0.350000
v 0.349120 0.497947 -0.350000
v 0.200000 0.150000 -0.200880
v 0.350000 0.500000 -0.350000
v 0.200000 0.150000 0.200880
v 0.350000 0.500000 0.350000
v 0.350000 0.500000 0.350000
v 0.350000 0.600000 0.350000
v 0.350000 0.600000 -0.350000
v 0.350000 0.500000 -0.350000
v -0.360000 0.600000 -0.350000
v -0.360000 0.497947 -0.350000
v 0.349120 0.497947 -0.350000
v 0.350000 0.500000 -0.350000
v 0.350000 0.600000 -0.350000
v -0.360000 0.147947 -0.200000
v 0.200000 0.147947 -0.200000
v 0.200000 0.150000 -0.200880
v -0.360000 0.497947 -0.350000
v 0.349120 0.497947 -0.350000
v 0.360000 0.600000 0.360000
v 0.360000 0.600000 -0.360000
v 0.350000 0.600000 -0.350000
v -0.360000 0.600000 -0.360000
v -0.360000 0.600000 -0.350000
v -0.360000 0.600000 0.360000
v 0.350000 0.600000 0.350000
v -0.360000 0.600000 0.350000
v 0.360000 0.000000 -0.200000
v 0.201429 0.127947 -0.200000
v 0.200000 0.127947 -0.200000
v 0.360000 0.147947 -0.200000
v 0.210000 0.147947 -0.200000
v -0.360000 0.147947 -0.200000
v -0.360000 0.000000 -0.200000
v 0.200000 0.147947 -0.200000
v -0.360000 0.000000 -0.210000
v 0.360000 0.000000 -0.210000
v 0.360000 0.000000 -0.200000
v -0.360000 0.000000 -0.200000
v 0.360000 0.600000 -0.360000
v 0.360000 0.600000 0.360000
v 0.360000 0.497947 0.350000
v 0.360000 0.497947 -0.350000
v 0.360000 0.147947 -0.200000
v 0.360000 0.145895 -0.210000
v 0.360000 0.000000 -0.200000
v 0.360000 0.000000 -0.210000
v 0.360000 0.495895 0.360000
v 0.360000 0.000000 0.200000
v 0.360000 0.147947 0.200000
v 0.360000 0.145895 0.210000
v 0.360000 0.495895 -0.360000
v 0.360000 0.000000 0.210000
v -0.360000 0.000000 -0.200000
v -0.360000 0.147947 -0.200000
v -0.360000 0.145895 -0.210000
v -0.360000 0.497947 -0.350000
v -0.360000 0.495895 -0.360000
v -0.360000 0.600000 -0.360000
v -0.360000 0.000000 -0.210000
v -0.360000 0.600000 -0.350000
v 0.360000 0.145895 -0.210000
v 0.360000 0.000000 -0.210000
v -0.360000 0.000000 -0.210000
v -0.360000 0.145895 -0.210000
v 0.360000 0.145895 -0.210000
v -0.360000 0.145895 -0.210000
v -0.360000 0.495895 -0.360000
v 0.360000 0.495895 -0.360000
v -0.360000 0.600000 -0.360000
v 0.360000 0.600000 -0.360000
v 0.360000 0.495895 -0.360000
v -0.360000 0.495895 -0.360000
vn 0.000 0.394 -0.919
vn 0.000 0.394 -0.919
vn 0.000 0.394 -0.919
vn 0.919 -0.394 0.000
vn 0.919 -0.394 0.000
vn 0.919 -0.394 0.000
vn 0.919 -0.394 0.000
vn 0.919 -0.394 0.000
vn 0.919 -0.394 0.000
vn 0.919 -0.394 0.000
vn 0.919 -0.394 0.000
vn 0.919 -0.394 0.000
vn 0.919 -0.394 0.000
vn 0.919 -0.394 0.000
vn 0.919 -0.394 0.000
vn 0.919 -0.394 0.000
vn 0.919 -0.394 0.000
vn 0.919 -0.394 0.000
vn 0.919 -0.394 0.000
vn 0.000 0.394 0.919
vn 0.000 0.394 0.919
vn 0.000 0.394 0.919
vn 0.000 -1.000 0.000
vn 0.000 -1.000 0.000
vn 0.000 -1.000 0.000
vn 0.000 -1.000 0.000
vn 0.000 -1.000 0.000
vn 0.000 -0.999 -0.036
vn 0.000 -0.865 -0.502
vn 0.000 -1.000 0.000
vn 0.000 -0.866 -0.500
vn 0.000 -0.499 -0.867
vn 0.000 -0.500 -0.866
vn 0.000 0.000 -1.000
vn 0.000 0.000 -1.000
vn 0.000 -0.500 0.866
vn 0.000 0.000 1.000
vn 0.000 -0.038 0.999
vn 0.000 0.000 1.000
vn 0.000 -0.866 0.500
vn 0.000 -0.532 0.847
vn 0.000 -0.500 0.866
vn 0.000 -1.000 0.000
vn 0.000 -0.883 0.469
vn 0.000 -0.866 0.501
vn 0.000 -1.000 0.000
vn -1.000 0.000 0.000
vn -1.000 0.000 0.000
vn -1.000 0.000 0.000
vn -1.000 0.000 0.000
vn -1.000 0.000 0.000
vn -1.000 0.000 0.000
vn -1.000 0.000 0.000
vn -1.000 0.000 0.000
vn -1.000 0.000 0.000
vn -1.000 0.000 0.000
vn -1.000 0.000 0.000
vn -1.000 0.000 0.000
vn 0.000 0.000 -1.000
vn 0.000 0.000 -1.000
vn 0.000 0.000 -1.000
vn 0.000 0.000 -1.000
vn 0.000 0.000 -1.000
vn 0.000 0.000 -1.000
vn 0.000 0.000 -1.000
vn 0.000 0.000 -1.000
vn 0.000 0.394 -0.919
vn 0.000 0.394 -0.919
vn 0.000 0.394 -0.919
vn 0.000 0.394 -0.919
vn 0.000 0.394 -0.919
vn 0.000 -1.000 0.000
vn 0.000 -1.000 0.000
vn 0.000 -1.000 0.000
vn 0.000 -1.000 0.000
vn 0.000 0.000 1.000
vn 0.000 0.000 1.000
vn 0.000 0.000 1.000
vn 0.000 0.000 1.000
vn 0.000 -0.394 0.919
vn 0.000 -0.394 0.919
vn 0.000 -0.394 0.919
vn 0.000 -0.394 0.919
vn -1.000 0.000 0.000
vn -1.000 0.000 0.000
vn -1.000 0.000 0.000
vn -1.000 0.000 0.000
vn -1.000 0.000 0.000
vn -1.000 0.000 0.000
vn -1.000 0.000 0.000
vn -1.000 0.000 0.000
vn 0.000 0.000 1.000
vn 0.000 0.000 1.000
vn 0.000 0.000 1.000
vn 0.000 0.000 1.000
vn 0.000 0.000 -1.000
vn 0.000 0.000 -1.000
vn 0.000 0.000 -1.000
vn 0.000 0.000 -1.000
vn 0.000 0.000 -1.000
vn -0.919 0.394 0.000
vn -0.919 0.394 0.000
vn -0.919 0.394 0.000
vn -0.919 0.394 0.000
vn -0.919 0.394 0.000
vn -0.919 0.394 0.000
vn -1.000 0.000 0.000
vn -1.000 0.000 0.000
vn -1.000 0.000 0.000
vn -1.000 0.000 0.000
vn 0.000 0.000 1.000
vn 0.000 0.000 1.000
vn 0.000 0.000 1.000
vn 0.000 0.000 1.000
vn 0.000 0.000 1.000
vn 0.000 0.394 0.919
vn 0.000 0.394 0.919
vn 0.000 0.394 0.919
vn 0.000 0.394 0.919
vn 0.000 0.394 0.919
vn 0.000 1.000 0.000
vn 0.000 1.000 0.000
vn 0.000 1.000 0.000
vn 0.000 1.000 0.000
vn 0.000 1.000 0.000
vn 0.000 1.000 0.000
vn 0.000 1.000 0.000
vn 0.000 1.000 0.000
vn 0.000 0.000 1.000
vn 0.000 0.000 1.000
vn 0.000 0.000 1.000
vn 0.000 0.000 1.000
vn 0.000 0.000 1.000
vn 0.000 0.000 1.000
vn 0.000 0.000 1.000
vn 0.000 0.000 1.000
vn 0.000 -1.000 0.000
vn 0.000 -1.000 0.000
vn 0.000 -1.000 0.000
vn 0.000 -1.000 0.000
vn 1.000 0.000 0.000
vn 1.000 0.000 0.000
vn 1.000 0.000 0.000
vn 1.000 0.000 0.000
vn 1.000 0.000 0.000
vn 1.000 0.000 0.000
vn 1.000 0.000 0.000
vn 1.000 0.000 0.000
vn 1.000 0.000 0.000
vn 1.000 0.000 0.000
vn 1.000 0.000 0.000
vn 1.000 0.000 0.000
vn 1.000 0.000 0.000
vn 1.000 0.000 0.000
vn -1.000 0.000 0.000
vn -1.000 0.000 0.000
vn -1.000 0.000 0.000
vn -1.000 0.000 0.000
vn -1.000 0.000 0.000
vn -1.000 0.000 0.000
vn -1.000 0.000 0.000
vn -1.000 0.000 0.000
vn 0.000 0.000 -1.000
vn 0.000 0.000 -1.000
vn 0.000 0.000 -1.000
vn 0.000 0.000 -1.000
vn 0.000 -0.394 -0.919
vn 0.000 -0.394 -0.919
vn 0.000 -0.394 -0.919
vn 0.000 -0.394 -0.919
vn 0.000 0.000 -1.000
vn 0.000 0.000 -1.000
vn 0.000 0.000 -1.000
vn 0.000 0.000 -1.000
vt -0.3808 -0.6210 0
vt 0.0000 -0.6210 0
vt 0.0000 -0.7710 0
vt -0.3808 0.4000 0
vt -0.3917 0.4027 0
vt -0.4017 0.4000 0
vt -0.3910 0.4031 0
vt 0.0000 0.2500 0
vt -0.3808 0.7800 0
vt -0.3808 0.4200 0
vt 0.0000 0.9500 0
vt -0.3808 0.7807 0
vt -0.3837 0.4100 0
vt -0.3833 0.4106 0
vt -0.3837 0.7900 0
vt -0.3808 0.8000 0
vt -0.4025 0.4000 0
vt -0.4025 0.8000 0
vt -0.3917 0.7973 0
vt 0.0000 -0.7710 0
vt 0.0000 -0.6210 0
vt 0.3808 -0.6210 0
vt 0.0200 0.5600 0
vt 0.0200 0.5700 0
vt 0.3800 0.5700 0
vt 0.3800 0.5600 0
vt 1.5708 0.7810 0
vt 1.5347 0.7710 0
vt 1.0452 0.7721 0
vt 1.5708 0.7710 0
vt 1.0472 0.7810 0
vt 0.5226 0.7753 0
vt 0.5236 0.7810 0
vt 0.0000 0.7795 0
vt 0.0000 0.7810 0
vt 2.6180 -0.5600 0
vt 3.1416 -0.5600 0
vt 3.1034 -0.5618 0
vt 3.1416 -0.5614 0
vt 2.0944 -0.5600 0
vt 2.5807 -0.5660 0
vt 2.6185 -0.5657 0
vt 1.5708 -0.5600 0
vt 2.0587 -0.5690 0
vt 2.0952 -0.5688 0
vt 1.5708 -0.5700 0
vt 0.8009 0.0000 0
vt 0.3991 0.0000 0
vt 0.4200 -0.0021 0
vt 0.7900 -0.0047 0
vt 0.7973 -0.0121 0
vt 0.8000 -0.0021 0
vt 0.7800 -0.0021 0
vt 0.4100 -0.0047 0
vt 0.4000 -0.0021 0
vt 0.4000 -0.0221 0
vt 0.4027 -0.0121 0
vt 0.8000 -0.0221 0
vt -0.6210 0.0000 0
vt -0.7795 0.1279 0
vt -0.7710 0.1479 0
vt -1.3410 0.0000 0
vt -0.7810 0.1279 0
vt -1.3410 0.1479 0
vt -0.7810 0.1479 0
vt -0.6210 0.1479 0
vt -0.3808 -1.3410 0
vt -0.3808 -0.6318 0
vt -0.0022 -0.7810 0
vt 0.0000 -1.3410 0
vt 0.0000 -0.7810 0
vt -0.8000 -0.5700 0
vt -0.8000 0.1500 0
vt -0.8100 0.1500 0
vt -0.8100 -0.5700 0
vt 1.3410 0.1459 0
vt 1.3410 0.0000 0
vt 0.6210 0.0000 0
vt 0.6210 0.1459 0
vt 0.0000 -1.3410 0
vt 0.0000 -0.6210 0
vt 0.3808 -0.6210 0
vt 0.3808 -1.3410 0
vt 0.9500 -0.1021 0
vt 0.8000 -0.4521 0
vt 0.8100 -0.4541 0
vt 0.9600 0.0000 0
vt 0.9500 0.0000 0
vt 0.9600 -0.1041 0
vt 0.8000 -0.6000 0
vt 0.8100 -0.6000 0
vt 1.3410 0.0000 0
vt 0.6210 0.0000 0
vt 0.6210 0.1041 0
vt 1.3410 0.1041 0
vt -1.3410 0.1021 0
vt -0.6310 0.0021 0
vt -0.6318 0.0000 0
vt -0.6310 0.1021 0
vt -1.3410 0.0000 0
vt 0.0022 0.9500 0
vt 0.0022 0.2500 0
vt 0.3808 0.3991 0
vt 0.0000 0.2500 0
vt 0.3808 0.8009 0
vt 0.0000 0.9500 0
vt 0.1000 0.9500 0
vt 0.0000 0.9500 0
vt 0.0000 0.2500 0
vt 0.1000 0.2500 0
vt 1.3410 0.1021 0
vt 1.3410 0.0000 0
vt 0.6318 0.0000 0
vt 0.6310 0.0021 0
vt 0.6310 0.1021 0
vt 0.0000 -1.3410 0
vt 0.0000 -0.7810 0
vt 0.0022 -0.7810 0
vt 0.3808 -1.3410 0
vt 0.3808 -0.6318 0
vt 0.9600 0.0000 0
vt 0.2400 0.0000 0
vt 0.2500 -0.0100 0
vt 0.2400 -0.7200 0
vt 0.2500 -0.7200 0
vt 0.9600 -0.7200 0
vt 0.9500 -0.0100 0
vt 0.9500 -0.7200 0
vt 0.6210 0.0000 0
vt 0.7795 0.1279 0
vt 0.7810 0.1279 0
vt 0.6210 0.1479 0
vt 0.7710 0.1479 0
vt 1.3410 0.1479 0
vt 1.3410 0.0000 0
vt 0.7810 0.1479 0
vt -0.3900 -0.5700 0
vt -0.3900 0.1500 0
vt -0.4000 0.1500 0
vt -0.4000 -0.5700 0
vt -0.2400 0.0000 0
vt -0.9600 0.0000 0
vt -0.9500 -0.1021 0
vt -0.2500 -0.1021 0
vt -0.4000 -0.4521 0
vt -0.3900 -0.4541 0
vt -0.4000 -0.6000 0
vt -0.3900 -0.6000 0
vt -0.9600 -0.1041 0
vt -0.8000 -0.6000 0
vt -0.8000 -0.4521 0
vt -0.8100 -0.4541 0
vt -0.2400 -0.1041 0
vt -0.8100 -0.6000 0
vt 0.4000 -0.6000 0
vt 0.4000 -0.4521 0
vt 0.3900 -0.4541 0
vt 0.2500 -0.1021 0
vt 0.2400 -0.1041 0
vt 0.2400 0.0000 0
vt 0.3900 -0.6000 0
vt 0.2500 0.0000 0
vt -0.6210 0.1459 0
vt -0.6210 0.0000 0
vt -1.3410 0.0000 0
vt -1.3410 0.1459 0
vt 0.0000 -0.6210 0
vt 0.0000 -1.3410 0
vt -0.3808 -1.3410 0
vt -0.3808 -0.6210 0
vt -1.3410 0.1041 0
vt -0.6210 0.1041 0
vt -0.6210 0.0000 0
vt -1.3410 0.0000 0
f 201/201/201 203/203/203 204/204/204
f 203/203/203 201/201/201 202/202/202
f 173/173/173 171/171/171 172/172/172
f 171/171/171 173/173/173 174/174/174
f 190/190/190 191/191/191 192/192/192
f 185/185/185 187/187/187 191/191/191
f 188/188/188 187/187/187 186/186/186
f 191/191/191 190/190/190 185/185/185
f 187/187/187 188/188/188 189/189/189
f 187/187/187 185/185/185 186/186/186
f 205/205/205 208/208/208 217/217/217
f 207/207/207 205/205/205 206/206/206
f 210/210/210 208/208/208 209/209/209
f 210/210/210 211/211/211 212/212/212
f 205/205/205 207/207/207 208/208/208
f 211/211/211 210/210/210 209/209/209
f 207/207/207 206/206/206 213/213/213
f 216/216/216 214/214/214 215/215/215
f 216/216/216 207/207/207 213/213/213
f 208/208/208 210/210/210 217/217/217
f 207/207/207 216/216/216 215/215/215
f 214/214/214 216/216/216 218/218/218
f 73/73/73 75/75/75 76/76/76
f 74/74/74 72/72/72 73/73/73
f 69/69/69 68/68/68 71/71/71
f 71/71/71 68/68/68 77/77/77
f 70/70/70 68/68/68 69/69/69
f 72/72/72 74/74/74 68/68/68
f 79/79/79 80/80/80 83/83/83
f 83/83/83 80/80/80 82/82/82
f 68/68/68 70/70/70 81/81/81
f 80/80/80 79/79/79 75/75/75
f 78/78/78 68/68/68 74/74/74
f 76/76/76 75/75/75 79/79/79
f 77/77/77 68/68/68 78/78/78
f 75/75/75 73/73/73 72/72/72
f 136/136/136 138/138/138 139/139/139
f 138/138/138 136/136/136 137/137/137
f 116/116/116 114/114/114 115/115/115
f 111/111/111 117/117/117 114/114/114
f 114/114/114 116/116/116 111/111/111
f 113/113/113 112/112/112 118/118/118
f 119/119/119 118/118/118 112/112/112
f 111/111/111 113/113/113 117/117/117
f 113/113/113 111/111/111 112/112/112
f 121/121/121 119/119/119 120/120/120
f 118/118/118 119/119/119 121/121/121
f 116/116/116 115/115/115 122/122/122
f 166/166/166 165/165/165 168/168/168
f 165/165/165 167/167/167 169/169/169
f 168/168/168 165/165/165 170/170/170
f 167/167/167 165/165/165 166/166/166
f 123/123/123 127/127/127 124/124/124
f 127/127/127 128/128/128 129/129/129
f 128/128/128 127/127/127 126/126/126
f 127/127/127 123/123/123 126/126/126
f 125/125/125 123/123/123 124/124/124
f 123/123/123 125/125/125 130/130/130
f 67/67/67 65/65/65 66/66/66
f 134/134/134 133/133/133 135/135/135
f 133/133/133 131/131/131 132/132/132
f 131/131/131 133/133/133 134/134/134
f 161/161/161 160/160/160 163/163/163
f 162/162/162 160/160/160 161/161/161
f 160/160/160 162/162/162 164/164/164
f 158/158/158 156/156/156 157/157/157
f 156/156/156 158/158/158 159/159/159
f 144/144/144 146/146/146 147/147/147
f 146/146/146 144/144/144 145/145/145
f 142/142/142 140/140/140 141/141/141
f 140/140/140 142/142/142 143/143/143
f 148/148/148 151/151/151 152/152/152
f 151/151/151 148/148/148 153/153/153
f 150/150/150 154/154/154 155/155/155
f 154/154/154 150/150/150 149/149/149
f 148/148/148 150/150/150 153/153/153
f 150/150/150 148/148/148 149/149/149
f 193/193/193 197/197/197 194/194/194
f 195/195/195 198/198/198 199/199/199
f 198/198/198 195/195/195 200/200/200
f 195/195/195 193/193/193 194/194/194
f 193/193/193 195/195/195 199/199/199
f 197/197/197 193/193/193 196/196/196
f 86/86/86 84/84/84 85/85/85
f 227/227/227 229/229/229 230/230/230
f 229/229/229 227/227/227 228/228/228
f 233/233/233 231/231/231 232/232/232
f 231/231/231 233/233/233 234/234/234
f 235/235/235 237/237/237 238/238/238
f 237/237/237 235/235/235 236/236/236
f 175/175/175 178/178/178 179/179/179
f 175/175/175 177/177/177 178/178/178
f 177/177/177 175/175/175 176/176/176
f 183/183/183 182/182/182 184/184/184
f 182/182/182 180/180/180 181/181/181
f 180/180/180 182/182/182 183/183/183
f 224/224/224 222/222/222 226/226/226
f 221/221/221 222/222/222 223/223/223
f 222/222/222 224/224/224 223/223/223
f 222/222/222 221/221/221 220/220/220
f 219/219/219 221/221/221 225/225/225
f 221/221/221 219/219/219 220/220/220
f 89/89/89 87/87/87 88/88/88
f 87/87/87 89/89/89 90/90/90
f 97/97/97 98/98/98 99/99/99
f 98/98/98 97/97/97 96/96/96
f 96/96/96 95/95/95 93/93/93
f 92/92/92 91/91/91 94/94/94
f 95/95/95 96/96/96 97/97/97
f 91/91/91 93/93/93 95/95/95
f 93/93/93 91/91/91 92/92/92
f 102/102/102 100/100/100 101/101/101
f 104/104/104 105/105/105 109/109/109
f 100/100/100 102/102/102 106/106/106
f 102/102/102 101/101/101 103/103/103
f 105/105/105 100/100/100 106/106/106
f 108/108/108 107/107/107 104/104/104
f 108/108/108 104/104/104 109/109/109
f 107/107/107 108/108/108 110/110/110
f 105/105/105 104/104/104 100/100/100
